<svg height="682.66669pt" viewBox="-21 -21 682.66669 682.66669" width="682.66669pt" xmlns="http://www.w3.org/2000/svg"><path d="m546.273438 93.726562c-60.4375-60.441406-140.800782-93.726562-226.273438-93.726562-61.871094 0-129.800781 22.351562-186.371094 61.332031-5.703125 3.925781-7.140625 11.738281-3.207031 17.441407 3.921875 5.710937 11.734375 7.144531 17.4375 3.214843 52.488281-36.164062 115.230469-56.90625 172.140625-56.90625 162.617188 0 294.914062 132.300781 294.914062 294.917969s-132.296874 294.917969-294.914062 294.917969-294.917969-132.300781-294.917969-294.917969c0-51.484375 13.464844-102.152344 38.925781-146.539062 3.019532-5.257813 9.214844-14.734376 17-25.996094 3.945313-5.699219 2.515626-13.511719-3.179687-17.449219-5.699219-3.941406-13.511719-2.515625-17.453125 3.183594-4.796875 6.941406-13.535156 19.777343-18.125 27.777343-27.640625 48.179688-42.25 103.167969-42.25 159.023438 0 85.472656 33.285156 165.835938 93.726562 226.273438 60.4375 60.441406 140.800782 93.726562 226.273438 93.726562s165.835938-33.285156 226.273438-93.726562c60.441406-60.4375 93.726562-140.800782 93.726562-226.273438s-33.285156-165.835938-93.726562-226.273438zm0 0"/><path d="m320 537.515625c119.9375 0 217.515625-97.578125 217.515625-217.515625s-97.578125-217.515625-217.515625-217.515625-217.515625 97.578125-217.515625 217.515625 97.578125 217.515625 217.515625 217.515625zm0-409.941406c106.101562 0 192.425781 86.316406 192.425781 192.425781 0 106.101562-86.324219 192.425781-192.425781 192.425781-106.109375 0-192.429688-86.324219-192.429688-192.425781 0-106.109375 86.328126-192.425781 192.429688-192.425781zm0 0"/><path d="m302.066406 461.582031v9.449219c0 6.929688 5.613282 12.542969 12.539063 12.542969s12.542969-5.613281 12.542969-12.542969v-10.59375c10.289062-1.691406 23.179687-5.179688 35.21875-12.335938 22.832031-13.570312 34.902343-35.484374 34.902343-63.375 0-46.253906-44.59375-72.183593-70.121093-76.59375v-93.476562c8.835937 1.851562 17.953124 6.949219 25.433593 14.4375 7.308594 7.308594 7.660157 12.355469 7.660157 27.3125 0 6.929688 5.617187 12.492188 12.539062 12.492188 6.929688 0 12.546875-5.671876 12.546875-12.59375 0-15.402344 0-29.941407-15.011719-44.953126-12.40625-12.40625-27.8125-20.222656-43.167968-22.109374v-9.484376c0-6.925781-5.617188-12.546874-12.542969-12.546874s-12.542969 5.621093-12.542969 12.546874v11.523438c-8.570312 2.171875-18.09375 5.902344-26.914062 11.71875-14.792969 9.742188-32.417969 28.601562-32.417969 63.058594 0 23.121094 11.464843 41.816406 33.148437 54.074218 8.933594 5.046876 18.183594 8.179688 26.183594 10.039063v106.019531c-21.96875-4.425781-39.375-28.792968-39.375-57.144531 0-6.921875-5.621094-12.539063-12.546875-12.539063-6.921875 0-12.542969 5.617188-12.542969 12.539063 0 21.390625 7.214844 41.8125 20.3125 57.511719 11.996094 14.371094 27.464844 23.085937 44.15625 25.023437zm70.117188-76.855469c0 34.578126-26.269532 46.265626-45.035156 50.195313v-101.058594c15.589843 4.578125 45.035156 21.171875 45.035156 50.863281zm-83.960938-86.4375c-13.734375-7.757812-20.410156-18.296874-20.410156-32.230468 0-18.699219 7.113281-32.871094 21.140625-42.117188 4.210937-2.777344 8.746094-4.886718 13.109375-6.441406v86.679688c-4.554688-1.421876-9.351562-3.351563-13.839844-5.890626zm0 0"/><path d="m102.515625 115.179688c.941406 0 1.902344-.105469 2.867187-.332032l.460938-.105468c6.742188-1.578126 10.929688-8.328126 9.351562-15.074219-1.578124-6.742188-8.324218-10.921875-15.074218-9.351563l-.457032.109375c-6.742187 1.574219-10.933593 8.324219-9.355468 15.074219 1.355468 5.78125 6.507812 9.679688 12.207031 9.679688zm0 0"/><path d="m451.65625 421.800781c.957031 0 1.929688-.113281 2.898438-.339843l.460937-.109376c6.742187-1.59375 10.914063-8.351562 9.316406-15.097656-1.597656-6.738281-8.351562-10.902344-15.09375-9.316406l-.457031.109375c-6.746094 1.59375-10.914062 8.351563-9.324219 15.097656 1.367188 5.765625 6.515625 9.65625 12.199219 9.65625zm0 0"/><path d="m466.113281 379.804688c1.628907.710937 3.332031 1.050781 5 1.050781 4.839844 0 9.449219-2.816407 11.503907-7.539063 27.820312-63.871094.757812-116.40625-.410157-118.613281-3.238281-6.125-10.824219-8.460937-16.949219-5.226563-6.121093 3.238282-8.464843 10.828126-5.226562 16.949219.226562.433594 22.640625 43.945313-.414062 96.875-2.761719 6.347657.144531 13.738281 6.496093 16.503907zm0 0"/></svg>